<svg width="1916" height="1111" xmlns="http://www.w3.org/2000/svg"><g><path d="M-89,-137L-123,60L94,113Z" fill="#fff3e3" stroke="#fff3e3"/><path d="M-89,-137L94,113L116,-135Z" fill="#fff1e4" stroke="#fff1e4"/><path d="M-89,-137L116,-135L1415,-144Z" fill="#fedec1" stroke="#fedec1"/><path d="M116,-135L94,113L294,121Z" fill="#ffe9d0" stroke="#ffe9d0"/><path d="M116,-135L294,121L335,-92Z" fill="#ffe8d4" stroke="#ffe8d4"/><path d="M116,-135L335,-92L502,-133Z" fill="#ffe5ce" stroke="#ffe5ce"/><path d="M116,-135L502,-133L1415,-144Z" fill="#fed4b2" stroke="#fed4b2"/><path d="M335,-92L294,121L450,30Z" fill="#fee1c3" stroke="#fee1c3"/><path d="M335,-92L450,30L502,-133Z" fill="#fee0c6" stroke="#fee0c6"/><path d="M502,-133L450,30L667,-25Z" fill="#fedbbd" stroke="#fedbbd"/><path d="M502,-133L667,-25L797,-79Z" fill="#fed6b4" stroke="#fed6b4"/><path d="M502,-133L797,-79L1228,-100Z" fill="#fbc9a6" stroke="#fbc9a6"/><path d="M502,-133L1228,-100L1415,-144Z" fill="#f7ba97" stroke="#f7ba97"/><path d="M667,-25L450,30L632,97Z" fill="#fed7b0" stroke="#fed7b0"/><path d="M667,-25L632,97L884,24Z" fill="#fdcfa5" stroke="#fdcfa5"/><path d="M667,-25L884,24L797,-79Z" fill="#fccdab" stroke="#fccdab"/><path d="M797,-79L884,24L1016,-56Z" fill="#fac5a2" stroke="#fac5a2"/><path d="M797,-79L1016,-56L1228,-100Z" fill="#f7bd9a" stroke="#f7bd9a"/><path d="M1016,-56L884,24L999,51Z" fill="#f8bf98" stroke="#f8bf98"/><path d="M1016,-56L999,51L1228,-100Z" fill="#f6b895" stroke="#f6b895"/><path d="M1228,-100L999,51L1279,157Z" fill="#f5af84" stroke="#f5af84"/><path d="M1228,-100L1279,157L1470,119Z" fill="#f2a375" stroke="#f2a375"/><path d="M1228,-100L1470,119L1415,-144Z" fill="#f1a480" stroke="#f1a480"/><path d="M1415,-144L1470,119L1605,-109Z" fill="#ef9b80" stroke="#ef9b80"/><path d="M1415,-144L1605,-109L2204,-98Z" fill="#ea8a80" stroke="#ea8a80"/><path d="M1605,-109L1470,119L1594,119Z" fill="#ee9474" stroke="#ee9474"/><path d="M1605,-109L1594,119L1789,-64Z" fill="#ec8f7e" stroke="#ec8f7e"/><path d="M1605,-109L1789,-64L2011,-61Z" fill="#e98680" stroke="#e98680"/><path d="M1605,-109L2011,-61L2204,-98Z" fill="#e78080" stroke="#e78080"/><path d="M1789,-64L1594,119L1746,142Z" fill="#eb8871" stroke="#eb8871"/><path d="M1789,-64L1746,142L2056,93Z" fill="#e87e72" stroke="#e87e72"/><path d="M1789,-64L2056,93L2011,-61Z" fill="#e7807d" stroke="#e7807d"/><path d="M2011,-61L2056,93L2218,53Z" fill="#e47e77" stroke="#e47e77"/><path d="M2011,-61L2218,53L2204,-98Z" fill="#e38080" stroke="#e38080"/><path d="M-123,60L-167,1108L-136,606Z" fill="#ffc196" stroke="#ffc196"/><path d="M-123,60L-136,606L-72,234Z" fill="#ffe4bb" stroke="#ffe4bb"/><path d="M-123,60L-72,234L94,113Z" fill="#ffebcf" stroke="#ffebcf"/><path d="M94,113L-72,234L58,257Z" fill="#ffe5c0" stroke="#ffe5c0"/><path d="M94,113L58,257L294,121Z" fill="#ffe2bc" stroke="#ffe2bc"/><path d="M294,121L58,257L345,256Z" fill="#ffdbae" stroke="#ffdbae"/><path d="M294,121L345,256L469,259Z" fill="#fed5a4" stroke="#fed5a4"/><path d="M294,121L469,259L450,30Z" fill="#fed8ad" stroke="#fed8ad"/><path d="M450,30L469,259L632,97Z" fill="#fed4a6" stroke="#fed4a6"/><path d="M632,97L469,259L727,242Z" fill="#fecb93" stroke="#fecb93"/><path d="M632,97L727,242L884,24Z" fill="#fcc795" stroke="#fcc795"/><path d="M884,24L727,242L826,276Z" fill="#fbbf87" stroke="#fbbf87"/><path d="M884,24L826,276L999,51Z" fill="#f9bd8a" stroke="#f9bd8a"/><path d="M999,51L826,276L1113,264Z" fill="#f8b278" stroke="#f8b278"/><path d="M999,51L1113,264L1206,243Z" fill="#f6aa70" stroke="#f6aa70"/><path d="M999,51L1206,243L1279,157Z" fill="#f5a972" stroke="#f5a972"/><path d="M1279,157L1206,243L1302,418Z" fill="#f39a57" stroke="#f39a57"/><path d="M1279,157L1302,418L1480,341Z" fill="#f1914b" stroke="#f1914b"/><path d="M1279,157L1480,341L1470,119Z" fill="#f0945a" stroke="#f0945a"/><path d="M1470,119L1480,341L1594,119Z" fill="#ee8d5c" stroke="#ee8d5c"/><path d="M1594,119L1480,341L1638,327Z" fill="#ed8551" stroke="#ed8551"/><path d="M1594,119L1638,327L1746,142Z" fill="#ec835c" stroke="#ec835c"/><path d="M1746,142L1638,327L1846,228Z" fill="#ea7b56" stroke="#ea7b56"/><path d="M1746,142L1846,228L2056,93Z" fill="#e87662" stroke="#e87662"/><path d="M2056,93L1846,228L1951,296Z" fill="#e7725a" stroke="#e7725a"/><path d="M2056,93L1951,296L2150,217Z" fill="#e5735b" stroke="#e5735b"/><path d="M2056,93L2150,217L2218,53Z" fill="#e37868" stroke="#e37868"/><path d="M2218,53L2150,217L2215,535Z" fill="#e26e50" stroke="#e26e50"/><path d="M-72,234L-136,606L-42,402Z" fill="#ffd8a8" stroke="#ffd8a8"/><path d="M-72,234L-42,402L58,257Z" fill="#ffe0b4" stroke="#ffe0b4"/><path d="M58,257L-42,402L91,544Z" fill="#ffd5a0" stroke="#ffd5a0"/><path d="M58,257L91,544L338,473Z" fill="#ffcc94" stroke="#ffcc94"/><path d="M58,257L338,473L345,256Z" fill="#ffd29a" stroke="#ffd29a"/><path d="M345,256L338,473L469,259Z" fill="#fecc8f" stroke="#fecc8f"/><path d="M469,259L338,473L404,499Z" fill="#fec482" stroke="#fec482"/><path d="M469,259L404,499L658,434Z" fill="#fec07c" stroke="#fec07c"/><path d="M469,259L658,434L727,242Z" fill="#fec480" stroke="#fec480"/><path d="M727,242L658,434L826,276Z" fill="#fcbb77" stroke="#fcbb77"/><path d="M826,276L658,434L824,500Z" fill="#fcb168" stroke="#fcb168"/><path d="M826,276L824,500L1103,522Z" fill="#f9a259" stroke="#f9a259"/><path d="M826,276L1103,522L1113,264Z" fill="#f7a65c" stroke="#f7a65c"/><path d="M1113,264L1103,522L1302,418Z" fill="#f5954a" stroke="#f5954a"/><path d="M1113,264L1302,418L1206,243Z" fill="#f49b55" stroke="#f49b55"/><path d="M1480,341L1302,418L1451,530Z" fill="#f08038" stroke="#f08038"/><path d="M1480,341L1451,530L1638,327Z" fill="#ee7d3c" stroke="#ee7d3c"/><path d="M1638,327L1451,530L1688,533Z" fill="#ed6f34" stroke="#ed6f34"/><path d="M1638,327L1688,533L1774,436Z" fill="#eb6c38" stroke="#eb6c38"/><path d="M1638,327L1774,436L1846,228Z" fill="#ea7446" stroke="#ea7446"/><path d="M1846,228L1774,436L1951,296Z" fill="#e86d48" stroke="#e86d48"/><path d="M1951,296L1774,436L2030,521Z" fill="#e7613a" stroke="#e7613a"/><path d="M1951,296L2030,521L2150,217Z" fill="#e56944" stroke="#e56944"/><path d="M2150,217L2030,521L2215,535Z" fill="#e36039" stroke="#e36039"/><path d="M-42,402L-136,606L91,544Z" fill="#ffc796" stroke="#ffc796"/><path d="M91,544L-136,606L152,653Z" fill="#ffb887" stroke="#ffb887"/><path d="M91,544L152,653L292,604Z" fill="#ffb27c" stroke="#ffb27c"/><path d="M91,544L292,604L338,473Z" fill="#ffb87f" stroke="#ffb87f"/><path d="M338,473L292,604L404,499Z" fill="#feb679" stroke="#feb679"/><path d="M404,499L292,604L409,599Z" fill="#feaf72" stroke="#feaf72"/><path d="M404,499L409,599L658,434Z" fill="#feb16f" stroke="#feb16f"/><path d="M658,434L409,599L705,666Z" fill="#fea560" stroke="#fea560"/><path d="M658,434L705,666L824,500Z" fill="#fda15b" stroke="#fda15b"/><path d="M824,500L705,666L914,689Z" fill="#fb8f49" stroke="#fb8f49"/><path d="M824,500L914,689L1029,598Z" fill="#f98b44" stroke="#f98b44"/><path d="M824,500L1029,598L1103,522Z" fill="#f88e47" stroke="#f88e47"/><path d="M1103,522L1029,598L1166,622Z" fill="#f68139" stroke="#f68139"/><path d="M1103,522L1166,622L1302,418Z" fill="#f4833a" stroke="#f4833a"/><path d="M1302,418L1166,622L1433,642Z" fill="#f2762d" stroke="#f2762d"/><path d="M1302,418L1433,642L1451,530Z" fill="#f1732c" stroke="#f1732c"/><path d="M1451,530L1433,642L1663,676Z" fill="#ee5f21" stroke="#ee5f21"/><path d="M1451,530L1663,676L1688,533Z" fill="#ed5e26" stroke="#ed5e26"/><path d="M1688,533L1663,676L1840,719Z" fill="#eb4c1e" stroke="#eb4c1e"/><path d="M1688,533L1840,719L1774,436Z" fill="#ea5528" stroke="#ea5528"/><path d="M1774,436L1840,719L2030,521Z" fill="#e84d28" stroke="#e84d28"/><path d="M2030,521L1840,719L2012,731Z" fill="#e63f1c" stroke="#e63f1c"/><path d="M2030,521L2012,731L2147,698Z" fill="#e5401d" stroke="#e5401d"/><path d="M2030,521L2147,698L2215,535Z" fill="#e34925" stroke="#e34925"/><path d="M2215,535L2147,698L2172,782Z" fill="#e33d1a" stroke="#e33d1a"/><path d="M2215,535L2172,782L2163,1067Z" fill="#e22b0b" stroke="#e22b0b"/><path d="M2215,535L2163,1067L2150,1261Z" fill="#e31400" stroke="#e31400"/><path d="M-136,606L-167,1108L-39,924Z" fill="#ff9771" stroke="#ff9771"/><path d="M-136,606L-39,924L73,865Z" fill="#ff9f74" stroke="#ff9f74"/><path d="M-136,606L73,865L152,653Z" fill="#ffa97a" stroke="#ffa97a"/><path d="M152,653L73,865L350,823Z" fill="#ff9865" stroke="#ff9865"/><path d="M152,653L350,823L292,604Z" fill="#ffa16a" stroke="#ffa16a"/><path d="M292,604L350,823L409,599Z" fill="#fea066" stroke="#fea066"/><path d="M409,599L350,823L486,799Z" fill="#fe9459" stroke="#fe9459"/><path d="M409,599L486,799L705,666Z" fill="#fe9656" stroke="#fe9656"/><path d="M705,666L486,799L620,809Z" fill="#fe8948" stroke="#fe8948"/><path d="M705,666L620,809L923,868Z" fill="#fc7c3a" stroke="#fc7c3a"/><path d="M705,666L923,868L914,689Z" fill="#fa7b38" stroke="#fa7b38"/><path d="M914,689L923,868L1011,797Z" fill="#f96e2b" stroke="#f96e2b"/><path d="M914,689L1011,797L1029,598Z" fill="#f87833" stroke="#f87833"/><path d="M1029,598L1011,797L1166,622Z" fill="#f77630" stroke="#f77630"/><path d="M1166,622L1011,797L1173,909Z" fill="#f66320" stroke="#f66320"/><path d="M1166,622L1173,909L1431,828Z" fill="#f35814" stroke="#f35814"/><path d="M1166,622L1431,828L1433,642Z" fill="#f25f19" stroke="#f25f19"/><path d="M1433,642L1431,828L1543,840Z" fill="#ef4c0e" stroke="#ef4c0e"/><path d="M1433,642L1543,840L1663,676Z" fill="#ee4e14" stroke="#ee4e14"/><path d="M1663,676L1543,840L1805,904Z" fill="#ec380a" stroke="#ec380a"/><path d="M1663,676L1805,904L1840,719Z" fill="#ea370f" stroke="#ea370f"/><path d="M1840,719L1805,904L1979,867Z" fill="#e82707" stroke="#e82707"/><path d="M1840,719L1979,867L2012,731Z" fill="#e72e0e" stroke="#e72e0e"/><path d="M2012,731L1979,867L2172,782Z" fill="#e52b0b" stroke="#e52b0b"/><path d="M2012,731L2172,782L2147,698Z" fill="#e43312" stroke="#e43312"/><path d="M-39,924L-167,1108L83,1013Z" fill="#ff806a" stroke="#ff806a"/><path d="M-39,924L83,1013L73,865Z" fill="#ff8964" stroke="#ff8964"/><path d="M73,865L83,1013L350,823Z" fill="#ff875a" stroke="#ff875a"/><path d="M350,823L83,1013L278,1089Z" fill="#ff7a55" stroke="#ff7a55"/><path d="M350,823L278,1089L514,1053Z" fill="#fe724a" stroke="#fe724a"/><path d="M350,823L514,1053L486,799Z" fill="#fe7d44" stroke="#fe7d44"/><path d="M486,799L514,1053L620,809Z" fill="#fe793d" stroke="#fe793d"/><path d="M620,809L514,1053L704,1014Z" fill="#fe6c38" stroke="#fe6c38"/><path d="M620,809L704,1014L923,868Z" fill="#fc6c2e" stroke="#fc6c2e"/><path d="M923,868L704,1014L904,1010Z" fill="#fb5b27" stroke="#fb5b27"/><path d="M923,868L904,1010L1173,909Z" fill="#f8561b" stroke="#f8561b"/><path d="M923,868L1173,909L1011,797Z" fill="#f75d1c" stroke="#f75d1c"/><path d="M1173,909L904,1010L987,1115Z" fill="#f7491a" stroke="#f7491a"/><path d="M1173,909L987,1115L1196,1115Z" fill="#f63d12" stroke="#f63d12"/><path d="M1173,909L1196,1115L1415,1114Z" fill="#f33308" stroke="#f33308"/><path d="M1173,909L1415,1114L1431,828Z" fill="#f23b02" stroke="#f23b02"/><path d="M1431,828L1415,1114L1543,840Z" fill="#ef3600" stroke="#ef3600"/><path d="M1543,840L1415,1114L1663,1104Z" fill="#ee2300" stroke="#ee2300"/><path d="M1543,840L1663,1104L1805,904Z" fill="#ec2400" stroke="#ec2400"/><path d="M1805,904L1663,1104L1791,1090Z" fill="#ea1200" stroke="#ea1200"/><path d="M1805,904L1791,1090L1936,1012Z" fill="#e91000" stroke="#e91000"/><path d="M1805,904L1936,1012L1979,867Z" fill="#e71800" stroke="#e71800"/><path d="M1979,867L1936,1012L2163,1067Z" fill="#e51000" stroke="#e51000"/><path d="M1979,867L2163,1067L2172,782Z" fill="#e41b00" stroke="#e41b00"/><path d="M-167,1108L-78,1298L83,1013Z" fill="#ff766b" stroke="#ff766b"/><path d="M83,1013L-78,1298L158,1275Z" fill="#ff7163" stroke="#ff7163"/><path d="M83,1013L158,1275L278,1089Z" fill="#ff6c5a" stroke="#ff6c5a"/><path d="M278,1089L158,1275L311,1309Z" fill="#ff6854" stroke="#ff6854"/><path d="M278,1089L311,1309L472,1171Z" fill="#fe644c" stroke="#fe644c"/><path d="M278,1089L472,1171L514,1053Z" fill="#fe6147" stroke="#fe6147"/><path d="M514,1053L472,1171L724,1163Z" fill="#fe5a3b" stroke="#fe5a3b"/><path d="M514,1053L724,1163L704,1014Z" fill="#fe5935" stroke="#fe5935"/><path d="M704,1014L724,1163L904,1010Z" fill="#fc522c" stroke="#fc522c"/><path d="M904,1010L724,1163L987,1115Z" fill="#fa4725" stroke="#fa4725"/><path d="M987,1115L724,1163L782,1249Z" fill="#fb4a28" stroke="#fb4a28"/><path d="M987,1115L782,1249L1119,1162Z" fill="#f8411e" stroke="#f8411e"/><path d="M987,1115L1119,1162L1196,1115Z" fill="#f63714" stroke="#f63714"/><path d="M1196,1115L1119,1162L1280,1167Z" fill="#f4300d" stroke="#f4300d"/><path d="M1196,1115L1280,1167L1415,1114Z" fill="#f22905" stroke="#f22905"/><path d="M1415,1114L1280,1167L1471,1273Z" fill="#f12300" stroke="#f12300"/><path d="M1415,1114L1471,1273L1618,1161Z" fill="#ef1b00" stroke="#ef1b00"/><path d="M1415,1114L1618,1161L1663,1104Z" fill="#ee1700" stroke="#ee1700"/><path d="M1663,1104L1618,1161L1837,1252Z" fill="#eb0d00" stroke="#eb0d00"/><path d="M1663,1104L1837,1252L1791,1090Z" fill="#ea0900" stroke="#ea0900"/><path d="M1791,1090L1837,1252L1978,1206Z" fill="#e80200" stroke="#e80200"/><path d="M1791,1090L1978,1206L1936,1012Z" fill="#e80000" stroke="#e80000"/><path d="M1936,1012L1978,1206L2163,1067Z" fill="#e50000" stroke="#e50000"/><path d="M2163,1067L1978,1206L2150,1261Z" fill="#e40000" stroke="#e40000"/><path d="M-78,1298L311,1309L158,1275Z" fill="#ff6e5d" stroke="#ff6e5d"/><path d="M311,1309L2150,1261L1471,1273Z" fill="#f22804" stroke="#f22804"/><path d="M311,1309L1471,1273L782,1249Z" fill="#fa4826" stroke="#fa4826"/><path d="M311,1309L782,1249L472,1171Z" fill="#fe5c3f" stroke="#fe5c3f"/><path d="M472,1171L782,1249L724,1163Z" fill="#fe5634" stroke="#fe5634"/><path d="M782,1249L1471,1273L1119,1162Z" fill="#f63512" stroke="#f63512"/><path d="M1119,1162L1471,1273L1280,1167Z" fill="#f32a06" stroke="#f32a06"/><path d="M1471,1273L2150,1261L1837,1252Z" fill="#e90500" stroke="#e90500"/><path d="M1471,1273L1837,1252L1618,1161Z" fill="#ec1100" stroke="#ec1100"/><path d="M1837,1252L2150,1261L1978,1206Z" fill="#e60000" stroke="#e60000"/></g></svg>