<svg width="1916" height="1111" xmlns="http://www.w3.org/2000/svg"><g><path d="M-138,-140L-179,556L-130,132Z" fill="#ffebdc" stroke="#ffebdc"/><path d="M-138,-140L-130,132L75,101Z" fill="#fff3ed" stroke="#fff3ed"/><path d="M-138,-140L75,101L138,-103Z" fill="#fff1ea" stroke="#fff1ea"/><path d="M-138,-140L138,-103L582,-132Z" fill="#fee7de" stroke="#fee7de"/><path d="M-138,-140L582,-132L1802,-161Z" fill="#fdc4b4" stroke="#fdc4b4"/><path d="M138,-103L75,101L317,53Z" fill="#fee7dc" stroke="#fee7dc"/><path d="M138,-103L317,53L294,-86Z" fill="#fee4d9" stroke="#fee4d9"/><path d="M138,-103L294,-86L582,-132Z" fill="#fedfd3" stroke="#fedfd3"/><path d="M294,-86L317,53L519,96Z" fill="#fedbcd" stroke="#fedbcd"/><path d="M294,-86L519,96L582,-132Z" fill="#fed8c9" stroke="#fed8c9"/><path d="M582,-132L519,96L688,-27Z" fill="#fecec0" stroke="#fecec0"/><path d="M582,-132L688,-27L969,-122Z" fill="#fdc4b4" stroke="#fdc4b4"/><path d="M582,-132L969,-122L1538,-141Z" fill="#faafa1" stroke="#faafa1"/><path d="M582,-132L1538,-141L1802,-161Z" fill="#ec9794" stroke="#ec9794"/><path d="M688,-27L519,96L658,133Z" fill="#fec7b4" stroke="#fec7b4"/><path d="M688,-27L658,133L934,76Z" fill="#fdbeaa" stroke="#fdbeaa"/><path d="M688,-27L934,76L969,-122Z" fill="#fdbbac" stroke="#fdbbac"/><path d="M969,-122L934,76L1083,-53Z" fill="#fbb2a3" stroke="#fbb2a3"/><path d="M969,-122L1083,-53L1322,-71Z" fill="#f5a69d" stroke="#f5a69d"/><path d="M969,-122L1322,-71L1538,-141Z" fill="#ed9a96" stroke="#ed9a96"/><path d="M1083,-53L934,76L1157,27Z" fill="#f8ab9e" stroke="#f8ab9e"/><path d="M1083,-53L1157,27L1322,-71Z" fill="#f2a19a" stroke="#f2a19a"/><path d="M1322,-71L1157,27L1413,107Z" fill="#ec9692" stroke="#ec9692"/><path d="M1322,-71L1413,107L1500,28Z" fill="#e78c8c" stroke="#e78c8c"/><path d="M1322,-71L1500,28L1538,-141Z" fill="#e48a8d" stroke="#e48a8d"/><path d="M1538,-141L1500,28L1780,45Z" fill="#dd8086" stroke="#dd8086"/><path d="M1538,-141L1780,45L1802,-161Z" fill="#d88082" stroke="#d88082"/><path d="M1802,-161L1780,45L2038,-116Z" fill="#cf8080" stroke="#cf8080"/><path d="M2038,-116L1780,45L2019,144Z" fill="#cc7e7c" stroke="#cc7e7c"/><path d="M2038,-116L2019,144L2186,-41Z" fill="#c58080" stroke="#c58080"/><path d="M2186,-41L2019,144L2283,104Z" fill="#c17a76" stroke="#c17a76"/><path d="M-130,132L-179,556L-62,262Z" fill="#ffdcc7" stroke="#ffdcc7"/><path d="M-130,132L-62,262L75,101Z" fill="#ffe6d7" stroke="#ffe6d7"/><path d="M75,101L-62,262L48,295Z" fill="#ffdeca" stroke="#ffdeca"/><path d="M75,101L48,295L241,357Z" fill="#fed6be" stroke="#fed6be"/><path d="M75,101L241,357L317,53Z" fill="#fed8c3" stroke="#fed8c3"/><path d="M317,53L241,357L568,275Z" fill="#fec9af" stroke="#fec9af"/><path d="M317,53L568,275L519,96Z" fill="#fecbb4" stroke="#fecbb4"/><path d="M519,96L568,275L658,133Z" fill="#fec1a8" stroke="#fec1a8"/><path d="M658,133L568,275L788,288Z" fill="#feb598" stroke="#feb598"/><path d="M658,133L788,288L934,76Z" fill="#fdb298" stroke="#fdb298"/><path d="M934,76L788,288L949,320Z" fill="#fda688" stroke="#fda688"/><path d="M934,76L949,320L1228,254Z" fill="#f99b81" stroke="#f99b81"/><path d="M934,76L1228,254L1157,27Z" fill="#f69e8c" stroke="#f69e8c"/><path d="M1157,27L1228,254L1413,107Z" fill="#ee8f83" stroke="#ee8f83"/><path d="M1413,107L1228,254L1407,287Z" fill="#ea8172" stroke="#ea8172"/><path d="M1413,107L1407,287L1570,336Z" fill="#e47469" stroke="#e47469"/><path d="M1413,107L1570,336L1500,28Z" fill="#e27975" stroke="#e27975"/><path d="M1500,28L1570,336L1780,45Z" fill="#dc7472" stroke="#dc7472"/><path d="M1780,45L1570,336L1843,373Z" fill="#d76a5b" stroke="#d76a5b"/><path d="M1780,45L1843,373L2019,144Z" fill="#cf7064" stroke="#cf7064"/><path d="M2019,144L1843,373L2046,293Z" fill="#cb6858" stroke="#cb6858"/><path d="M2019,144L2046,293L2283,104Z" fill="#c37065" stroke="#c37065"/><path d="M2283,104L2046,293L2265,358Z" fill="#bf6a5b" stroke="#bf6a5b"/><path d="M2283,104L2265,358L2274,1179Z" fill="#bb402e" stroke="#bb402e"/><path d="M-62,262L-179,556L48,295Z" fill="#ffd0ba" stroke="#ffd0ba"/><path d="M48,295L-179,556L70,567Z" fill="#ffbfa7" stroke="#ffbfa7"/><path d="M48,295L70,567L241,357Z" fill="#ffc1a7" stroke="#ffc1a7"/><path d="M241,357L70,567L272,535Z" fill="#feb195" stroke="#feb195"/><path d="M241,357L272,535L458,600Z" fill="#fea889" stroke="#fea889"/><path d="M241,357L458,600L568,275Z" fill="#feaf8f" stroke="#feaf8f"/><path d="M568,275L458,600L683,551Z" fill="#fe9b7b" stroke="#fe9b7b"/><path d="M568,275L683,551L788,288Z" fill="#fea382" stroke="#fea382"/><path d="M788,288L683,551L970,493Z" fill="#fd8f6d" stroke="#fd8f6d"/><path d="M788,288L970,493L949,320Z" fill="#fd9472" stroke="#fd9472"/><path d="M949,320L970,493L1080,479Z" fill="#fb8362" stroke="#fb8362"/><path d="M949,320L1080,479L1228,254Z" fill="#f7876b" stroke="#f7876b"/><path d="M1228,254L1080,479L1318,467Z" fill="#f1755d" stroke="#f1755d"/><path d="M1228,254L1318,467L1407,287Z" fill="#eb7562" stroke="#eb7562"/><path d="M1407,287L1318,467L1570,336Z" fill="#e66859" stroke="#e66859"/><path d="M1570,336L1318,467L1608,491Z" fill="#e2584b" stroke="#e2584b"/><path d="M1570,336L1608,491L1843,373Z" fill="#d95648" stroke="#d95648"/><path d="M1843,373L1608,491L1852,448Z" fill="#d5503e" stroke="#d5503e"/><path d="M1843,373L1852,448L2000,475Z" fill="#ce513f" stroke="#ce513f"/><path d="M1843,373L2000,475L2046,293Z" fill="#cb5947" stroke="#cb5947"/><path d="M2046,293L2000,475L2152,524Z" fill="#c6513f" stroke="#c6513f"/><path d="M2046,293L2152,524L2265,358Z" fill="#c15745" stroke="#c15745"/><path d="M2265,358L2152,524L2141,809Z" fill="#c03e2b" stroke="#c03e2b"/><path d="M2265,358L2141,809L2229,972Z" fill="#bb251d" stroke="#bb251d"/><path d="M2265,358L2229,972L2274,1179Z" fill="#b61111" stroke="#b61111"/><path d="M-179,556L-101,1168L-110,1009Z" fill="#f77f81" stroke="#f77f81"/><path d="M-179,556L-110,1009L-84,802Z" fill="#fa928c" stroke="#fa928c"/><path d="M-179,556L-84,802L70,567Z" fill="#fda796" stroke="#fda796"/><path d="M70,567L-84,802L100,790Z" fill="#fb9587" stroke="#fb9587"/><path d="M70,567L100,790L264,727Z" fill="#fb9280" stroke="#fb9280"/><path d="M70,567L264,727L272,535Z" fill="#fd9d85" stroke="#fd9d85"/><path d="M272,535L264,727L458,600Z" fill="#fd947a" stroke="#fd947a"/><path d="M458,600L264,727L542,678Z" fill="#fb876e" stroke="#fb876e"/><path d="M458,600L542,678L683,551Z" fill="#fc876a" stroke="#fc876a"/><path d="M683,551L542,678L656,773Z" fill="#fb795f" stroke="#fb795f"/><path d="M683,551L656,773L880,724Z" fill="#fa6f55" stroke="#fa6f55"/><path d="M683,551L880,724L970,493Z" fill="#fc7757" stroke="#fc7757"/><path d="M970,493L880,724L1191,674Z" fill="#f86348" stroke="#f86348"/><path d="M970,493L1191,674L1080,479Z" fill="#f76b4d" stroke="#f76b4d"/><path d="M1080,479L1191,674L1318,467Z" fill="#f16249" stroke="#f16249"/><path d="M1318,467L1191,674L1361,814Z" fill="#ea4839" stroke="#ea4839"/><path d="M1318,467L1361,814L1555,678Z" fill="#e43d32" stroke="#e43d32"/><path d="M1318,467L1555,678L1608,491Z" fill="#e2483a" stroke="#e2483a"/><path d="M1608,491L1555,678L1708,766Z" fill="#da3129" stroke="#da3129"/><path d="M1608,491L1708,766L1852,448Z" fill="#d63d2c" stroke="#d63d2c"/><path d="M1852,448L1708,766L1954,679Z" fill="#cf3325" stroke="#cf3325"/><path d="M1852,448L1954,679L2000,475Z" fill="#cc4230" stroke="#cc4230"/><path d="M2000,475L1954,679L2152,524Z" fill="#c73f2c" stroke="#c73f2c"/><path d="M2152,524L1954,679L2141,809Z" fill="#c22c21" stroke="#c22c21"/><path d="M-84,802L-110,1009L129,1016Z" fill="#f67475" stroke="#f67475"/><path d="M-84,802L129,1016L100,790Z" fill="#f77b77" stroke="#f77b77"/><path d="M100,790L129,1016L361,926Z" fill="#f66c68" stroke="#f66c68"/><path d="M100,790L361,926L264,727Z" fill="#f8796e" stroke="#f8796e"/><path d="M264,727L361,926L542,678Z" fill="#f97767" stroke="#f97767"/><path d="M542,678L361,926L480,979Z" fill="#f76559" stroke="#f76559"/><path d="M542,678L480,979L656,773Z" fill="#f86756" stroke="#f86756"/><path d="M656,773L480,979L795,916Z" fill="#f65449" stroke="#f65449"/><path d="M656,773L795,916L880,724Z" fill="#f75847" stroke="#f75847"/><path d="M880,724L795,916L1023,985Z" fill="#f64437" stroke="#f64437"/><path d="M880,724L1023,985L1191,674Z" fill="#f44737" stroke="#f44737"/><path d="M1191,674L1023,985L1228,967Z" fill="#ec302a" stroke="#ec302a"/><path d="M1191,674L1228,967L1361,814Z" fill="#e82f2a" stroke="#e82f2a"/><path d="M1361,814L1228,967L1387,955Z" fill="#e21a1e" stroke="#e21a1e"/><path d="M1361,814L1387,955L1497,918Z" fill="#de161b" stroke="#de161b"/><path d="M1361,814L1497,918L1555,678Z" fill="#de2022" stroke="#de2022"/><path d="M1555,678L1497,918L1708,766Z" fill="#d8191e" stroke="#d8191e"/><path d="M1708,766L1497,918L1741,978Z" fill="#d30911" stroke="#d30911"/><path d="M1708,766L1741,978L1954,679Z" fill="#cd1614" stroke="#cd1614"/><path d="M1954,679L1741,978L1987,1016Z" fill="#c6080c" stroke="#c6080c"/><path d="M1954,679L1987,1016L2141,809Z" fill="#c11212" stroke="#c11212"/><path d="M2141,809L1987,1016L2229,972Z" fill="#ba0208" stroke="#ba0208"/><path d="M-110,1009L-101,1168L62,1101Z" fill="#f27670" stroke="#f27670"/><path d="M-110,1009L62,1101L129,1016Z" fill="#f3716b" stroke="#f3716b"/><path d="M129,1016L62,1101L277,1084Z" fill="#f26a61" stroke="#f26a61"/><path d="M129,1016L277,1084L361,926Z" fill="#f4645b" stroke="#f4645b"/><path d="M361,926L277,1084L480,979Z" fill="#f35d53" stroke="#f35d53"/><path d="M480,979L277,1084L550,1169Z" fill="#f25a4c" stroke="#f25a4c"/><path d="M480,979L550,1169L711,1088Z" fill="#f25041" stroke="#f25041"/><path d="M480,979L711,1088L795,916Z" fill="#f34a3d" stroke="#f34a3d"/><path d="M795,916L711,1088L923,1197Z" fill="#f14030" stroke="#f14030"/><path d="M795,916L923,1197L1023,985Z" fill="#f23829" stroke="#f23829"/><path d="M1023,985L923,1197L1135,1198Z" fill="#ec2f22" stroke="#ec2f22"/><path d="M1023,985L1135,1198L1228,967Z" fill="#e9271d" stroke="#e9271d"/><path d="M1228,967L1135,1198L1401,1159Z" fill="#e11c17" stroke="#e11c17"/><path d="M1228,967L1401,1159L1387,955Z" fill="#df1513" stroke="#df1513"/><path d="M1387,955L1401,1159L1497,918Z" fill="#db0d10" stroke="#db0d10"/><path d="M1497,918L1401,1159L1591,1160Z" fill="#d6070c" stroke="#d6070c"/><path d="M1497,918L1591,1160L1741,978Z" fill="#d20007" stroke="#d20007"/><path d="M1741,978L1591,1160L1822,1099Z" fill="#cb0002" stroke="#cb0002"/><path d="M1741,978L1822,1099L1987,1016Z" fill="#c60000" stroke="#c60000"/><path d="M1987,1016L1822,1099L2039,1097Z" fill="#c00000" stroke="#c00000"/><path d="M1987,1016L2039,1097L2229,972Z" fill="#ba0000" stroke="#ba0000"/><path d="M2229,972L2039,1097L2274,1179Z" fill="#b30000" stroke="#b30000"/><path d="M-101,1168L-39,1349L62,1101Z" fill="#f0746f" stroke="#f0746f"/><path d="M62,1101L-39,1349L116,1321Z" fill="#ee7069" stroke="#ee7069"/><path d="M62,1101L116,1321L277,1084Z" fill="#f06a61" stroke="#f06a61"/><path d="M277,1084L116,1321L256,1383Z" fill="#ee665c" stroke="#ee665c"/><path d="M277,1084L256,1383L550,1169Z" fill="#ee5e52" stroke="#ee5e52"/><path d="M550,1169L256,1383L570,1302Z" fill="#ed584a" stroke="#ed584a"/><path d="M550,1169L570,1302L711,1088Z" fill="#ef4e3f" stroke="#ef4e3f"/><path d="M711,1088L570,1302L674,1386Z" fill="#ed4b3c" stroke="#ed4b3c"/><path d="M711,1088L674,1386L923,1197Z" fill="#ee4333" stroke="#ee4333"/><path d="M923,1197L674,1386L892,1360Z" fill="#eb3e2f" stroke="#eb3e2f"/><path d="M923,1197L892,1360L1089,1429Z" fill="#eb3425" stroke="#eb3425"/><path d="M923,1197L1089,1429L1135,1198Z" fill="#e82d21" stroke="#e82d21"/><path d="M1135,1198L1089,1429L1359,1388Z" fill="#df211a" stroke="#df211a"/><path d="M1135,1198L1359,1388L1401,1159Z" fill="#dc1815" stroke="#dc1815"/><path d="M1401,1159L1359,1388L1612,1311Z" fill="#d30b0e" stroke="#d30b0e"/><path d="M1401,1159L1612,1311L1591,1160Z" fill="#d1040a" stroke="#d1040a"/><path d="M1591,1160L1612,1311L1822,1099Z" fill="#ca0004" stroke="#ca0004"/><path d="M1822,1099L1612,1311L1816,1388Z" fill="#c50000" stroke="#c50000"/><path d="M1822,1099L1816,1388L2002,1301Z" fill="#bf0000" stroke="#bf0000"/><path d="M1822,1099L2002,1301L2039,1097Z" fill="#bd0000" stroke="#bd0000"/><path d="M2039,1097L2002,1301L2161,1302Z" fill="#b60000" stroke="#b60000"/><path d="M2039,1097L2161,1302L2274,1179Z" fill="#b20000" stroke="#b20000"/><path d="M-39,1349L256,1383L116,1321Z" fill="#ec6c64" stroke="#ec6c64"/><path d="M256,1383L1089,1429L674,1386Z" fill="#ea493a" stroke="#ea493a"/><path d="M256,1383L674,1386L570,1302Z" fill="#eb5647" stroke="#eb5647"/><path d="M674,1386L1089,1429L892,1360Z" fill="#ea3a2b" stroke="#ea3a2b"/><path d="M1089,1429L1816,1388L1359,1388Z" fill="#d20e0f" stroke="#d20e0f"/><path d="M1359,1388L1816,1388L1612,1311Z" fill="#ca0007" stroke="#ca0007"/><path d="M1816,1388L2161,1302L2002,1301Z" fill="#b70000" stroke="#b70000"/></g></svg>