<svg width="1916" height="1111" xmlns="http://www.w3.org/2000/svg"><g><path d="M-40,-73L-122,184L-25,75Z" fill="#fff0e8" stroke="#fff0e8"/><path d="M-40,-73L-25,75L70,50Z" fill="#fff1ea" stroke="#fff1ea"/><path d="M-40,-73L70,50L67,-96Z" fill="#fff0ea" stroke="#fff0ea"/><path d="M67,-96L70,50L180,-96Z" fill="#ffece4" stroke="#ffece4"/><path d="M67,-96L180,-96L1265,-126Z" fill="#fed5c6" stroke="#fed5c6"/><path d="M180,-96L70,50L171,83Z" fill="#fee9e0" stroke="#fee9e0"/><path d="M180,-96L171,83L324,-73Z" fill="#fee5db" stroke="#fee5db"/><path d="M180,-96L324,-73L677,-98Z" fill="#fedccf" stroke="#fedccf"/><path d="M180,-96L677,-98L1265,-126Z" fill="#fec7b7" stroke="#fec7b7"/><path d="M324,-73L171,83L329,68Z" fill="#fee0d4" stroke="#fee0d4"/><path d="M324,-73L329,68L520,-56Z" fill="#fedccf" stroke="#fedccf"/><path d="M324,-73L520,-56L677,-98Z" fill="#fed5c6" stroke="#fed5c6"/><path d="M520,-56L329,68L541,86Z" fill="#fed5c4" stroke="#fed5c4"/><path d="M520,-56L541,86L677,-98Z" fill="#fed0c1" stroke="#fed0c1"/><path d="M677,-98L541,86L724,93Z" fill="#fec8b8" stroke="#fec8b8"/><path d="M677,-98L724,93L789,18Z" fill="#fdc4b5" stroke="#fdc4b5"/><path d="M677,-98L789,18L796,-76Z" fill="#fdc3b4" stroke="#fdc3b4"/><path d="M677,-98L796,-76L1265,-126Z" fill="#fdb8a8" stroke="#fdb8a8"/><path d="M796,-76L789,18L968,-21Z" fill="#fdbcad" stroke="#fdbcad"/><path d="M796,-76L968,-21L1265,-126Z" fill="#fbb0a2" stroke="#fbb0a2"/><path d="M968,-21L789,18L984,41Z" fill="#fdb7a6" stroke="#fdb7a6"/><path d="M968,-21L984,41L1106,-19Z" fill="#fab0a2" stroke="#fab0a2"/><path d="M968,-21L1106,-19L1265,-126Z" fill="#f5a79d" stroke="#f5a79d"/><path d="M1106,-19L984,41L1126,109Z" fill="#f8a799" stroke="#f8a799"/><path d="M1106,-19L1126,109L1280,55Z" fill="#f39f94" stroke="#f39f94"/><path d="M1106,-19L1280,55L1265,-126Z" fill="#f09f99" stroke="#f09f99"/><path d="M1265,-126L1280,55L1483,-81Z" fill="#ea9493" stroke="#ea9493"/><path d="M1265,-126L1483,-81L1773,-91Z" fill="#e2868b" stroke="#e2868b"/><path d="M1265,-126L1773,-91L1838,-93Z" fill="#dc8085" stroke="#dc8085"/><path d="M1483,-81L1280,55L1517,58Z" fill="#e68c8d" stroke="#e68c8d"/><path d="M1483,-81L1517,58L1568,-21Z" fill="#e1848a" stroke="#e1848a"/><path d="M1483,-81L1568,-21L1773,-91Z" fill="#dd8086" stroke="#dd8086"/><path d="M1568,-21L1517,58L1747,53Z" fill="#dd7d82" stroke="#dd7d82"/><path d="M1568,-21L1747,53L1773,-91Z" fill="#d88082" stroke="#d88082"/><path d="M1773,-91L1747,53L1838,-93Z" fill="#d48080" stroke="#d48080"/><path d="M1838,-93L1747,53L1911,61Z" fill="#d17f7f" stroke="#d17f7f"/><path d="M1838,-93L1911,61L2017,-42Z" fill="#cd8080" stroke="#cd8080"/><path d="M2017,-42L1911,61L2063,95Z" fill="#c97c7a" stroke="#c97c7a"/><path d="M-25,75L-122,184L96,263Z" fill="#ffe4d4" stroke="#ffe4d4"/><path d="M-25,75L96,263L70,50Z" fill="#ffe5d6" stroke="#ffe5d6"/><path d="M70,50L96,263L171,83Z" fill="#ffe0d0" stroke="#ffe0d0"/><path d="M171,83L96,263L232,273Z" fill="#fed7c1" stroke="#fed7c1"/><path d="M171,83L232,273L340,180Z" fill="#fed5bf" stroke="#fed5bf"/><path d="M171,83L340,180L329,68Z" fill="#fed9c7" stroke="#fed9c7"/><path d="M329,68L340,180L541,86Z" fill="#fed2bd" stroke="#fed2bd"/><path d="M541,86L340,180L472,247Z" fill="#fec9b1" stroke="#fec9b1"/><path d="M541,86L472,247L626,240Z" fill="#fec1a7" stroke="#fec1a7"/><path d="M541,86L626,240L724,93Z" fill="#fec0a9" stroke="#fec0a9"/><path d="M724,93L626,240L789,213Z" fill="#feb79c" stroke="#feb79c"/><path d="M724,93L789,213L789,18Z" fill="#fdb9a3" stroke="#fdb9a3"/><path d="M789,18L789,213L984,41Z" fill="#fdb49f" stroke="#fdb49f"/><path d="M984,41L789,213L992,259Z" fill="#fda88e" stroke="#fda88e"/><path d="M984,41L992,259L1087,227Z" fill="#faa088" stroke="#faa088"/><path d="M984,41L1087,227L1126,109Z" fill="#f8a18d" stroke="#f8a18d"/><path d="M1126,109L1087,227L1310,215Z" fill="#f29280" stroke="#f29280"/><path d="M1126,109L1310,215L1280,55Z" fill="#ef9285" stroke="#ef9285"/><path d="M1280,55L1310,215L1435,172Z" fill="#ea877d" stroke="#ea877d"/><path d="M1280,55L1435,172L1468,123Z" fill="#e7857f" stroke="#e7857f"/><path d="M1280,55L1468,123L1517,58Z" fill="#e68683" stroke="#e68683"/><path d="M1468,123L1435,172L1550,205Z" fill="#e37974" stroke="#e37974"/><path d="M1468,123L1550,205L1517,58Z" fill="#e27a78" stroke="#e27a78"/><path d="M1517,58L1550,205L1747,53Z" fill="#dd7777" stroke="#dd7777"/><path d="M1747,53L1550,205L1684,228Z" fill="#da726c" stroke="#da726c"/><path d="M1747,53L1684,228L1835,256Z" fill="#d57065" stroke="#d57065"/><path d="M1747,53L1835,256L1911,61Z" fill="#d2756e" stroke="#d2756e"/><path d="M1911,61L1835,256L2023,181Z" fill="#cd7167" stroke="#cd7167"/><path d="M1911,61L2023,181L2063,95Z" fill="#c9766f" stroke="#c9766f"/><path d="M2063,95L2023,181L1996,323Z" fill="#c86e62" stroke="#c86e62"/><path d="M2063,95L1996,323L2010,663Z" fill="#c85c4a" stroke="#c85c4a"/><path d="M2063,95L2010,663L2051,1284Z" fill="#c42b20" stroke="#c42b20"/><path d="M-122,184L-121,862L-121,549Z" fill="#ffbca5" stroke="#ffbca5"/><path d="M-122,184L-121,549L-60,409Z" fill="#ffd1bb" stroke="#ffd1bb"/><path d="M-122,184L-60,409L96,263Z" fill="#ffdbc4" stroke="#ffdbc4"/><path d="M96,263L-60,409L75,401Z" fill="#ffcdb4" stroke="#ffcdb4"/><path d="M96,263L75,401L243,385Z" fill="#fec8ae" stroke="#fec8ae"/><path d="M96,263L243,385L232,273Z" fill="#fecbb0" stroke="#fecbb0"/><path d="M232,273L243,385L420,339Z" fill="#fec1a4" stroke="#fec1a4"/><path d="M232,273L420,339L340,180Z" fill="#fec8ac" stroke="#fec8ac"/><path d="M340,180L420,339L472,247Z" fill="#fec5a8" stroke="#fec5a8"/><path d="M472,247L420,339L534,348Z" fill="#feba9b" stroke="#feba9b"/><path d="M472,247L534,348L626,240Z" fill="#feba9a" stroke="#feba9a"/><path d="M626,240L534,348L720,358Z" fill="#feaf8e" stroke="#feaf8e"/><path d="M626,240L720,358L789,213Z" fill="#feaf8f" stroke="#feaf8f"/><path d="M789,213L720,358L860,401Z" fill="#fda281" stroke="#fda281"/><path d="M789,213L860,401L992,259Z" fill="#fda080" stroke="#fda080"/><path d="M992,259L860,401L939,416Z" fill="#fd9371" stroke="#fd9371"/><path d="M992,259L939,416L1143,366Z" fill="#fa8d6e" stroke="#fa8d6e"/><path d="M992,259L1143,366L1087,227Z" fill="#f79275" stroke="#f79275"/><path d="M1087,227L1143,366L1236,363Z" fill="#f3866c" stroke="#f3866c"/><path d="M1087,227L1236,363L1310,215Z" fill="#f18871" stroke="#f18871"/><path d="M1310,215L1236,363L1382,345Z" fill="#ec7a67" stroke="#ec7a67"/><path d="M1310,215L1382,345L1435,172Z" fill="#e87c6d" stroke="#e87c6d"/><path d="M1435,172L1382,345L1550,205Z" fill="#e4756a" stroke="#e4756a"/><path d="M1550,205L1382,345L1618,316Z" fill="#e16b60" stroke="#e16b60"/><path d="M1550,205L1618,316L1684,228Z" fill="#dc6a61" stroke="#dc6a61"/><path d="M1684,228L1618,316L1757,421Z" fill="#d96153" stroke="#d96153"/><path d="M1684,228L1757,421L1835,256Z" fill="#d56453" stroke="#d56453"/><path d="M1835,256L1757,421L1829,394Z" fill="#d35c4b" stroke="#d35c4b"/><path d="M1835,256L1829,394L1996,323Z" fill="#cf6150" stroke="#cf6150"/><path d="M1835,256L1996,323L2023,181Z" fill="#cb6a5a" stroke="#cb6a5a"/><path d="M-60,409L-121,549L50,568Z" fill="#ffbba3" stroke="#ffbba3"/><path d="M-60,409L50,568L75,401Z" fill="#ffbfa6" stroke="#ffbfa6"/><path d="M75,401L50,568L261,499Z" fill="#feb499" stroke="#feb499"/><path d="M75,401L261,499L243,385Z" fill="#feb99e" stroke="#feb99e"/><path d="M243,385L261,499L342,479Z" fill="#feb193" stroke="#feb193"/><path d="M243,385L342,479L420,339Z" fill="#feb597" stroke="#feb597"/><path d="M420,339L342,479L495,493Z" fill="#feab8b" stroke="#feab8b"/><path d="M420,339L495,493L534,348Z" fill="#fead8d" stroke="#fead8d"/><path d="M534,348L495,493L701,468Z" fill="#fea180" stroke="#fea180"/><path d="M534,348L701,468L720,358Z" fill="#fea281" stroke="#fea281"/><path d="M720,358L701,468L816,474Z" fill="#fd9573" stroke="#fd9573"/><path d="M720,358L816,474L860,401Z" fill="#fd9573" stroke="#fd9573"/><path d="M860,401L816,474L942,495Z" fill="#fd8967" stroke="#fd8967"/><path d="M860,401L942,495L939,416Z" fill="#fd8867" stroke="#fd8867"/><path d="M939,416L942,495L1143,366Z" fill="#fb8363" stroke="#fb8363"/><path d="M1143,366L942,495L1167,552Z" fill="#f77658" stroke="#f77658"/><path d="M1143,366L1167,552L1236,363Z" fill="#f2745a" stroke="#f2745a"/><path d="M1236,363L1167,552L1287,559Z" fill="#f0664e" stroke="#f0664e"/><path d="M1236,363L1287,559L1384,482Z" fill="#ec644f" stroke="#ec644f"/><path d="M1236,363L1384,482L1382,345Z" fill="#ea6b58" stroke="#ea6b58"/><path d="M1382,345L1384,482L1568,476Z" fill="#e55c4d" stroke="#e55c4d"/><path d="M1382,345L1568,476L1618,316Z" fill="#e15d52" stroke="#e15d52"/><path d="M1618,316L1568,476L1757,421Z" fill="#db5548" stroke="#db5548"/><path d="M1757,421L1568,476L1775,569Z" fill="#d84938" stroke="#d84938"/><path d="M1757,421L1775,569L1843,470Z" fill="#d34937" stroke="#d34937"/><path d="M1757,421L1843,470L1829,394Z" fill="#d35240" stroke="#d35240"/><path d="M1829,394L1843,470L1996,323Z" fill="#cf5745" stroke="#cf5745"/><path d="M1996,323L1843,470L1966,538Z" fill="#cc503d" stroke="#cc503d"/><path d="M1996,323L1966,538L2010,663Z" fill="#ca4634" stroke="#ca4634"/><path d="M-121,549L-121,862L-75,652Z" fill="#fca294" stroke="#fca294"/><path d="M-121,549L-75,652L50,568Z" fill="#feaf99" stroke="#feaf99"/><path d="M50,568L-75,652L102,713Z" fill="#fda28e" stroke="#fda28e"/><path d="M50,568L102,713L252,617Z" fill="#fc9e87" stroke="#fc9e87"/><path d="M50,568L252,617L261,499Z" fill="#fea68a" stroke="#fea68a"/><path d="M261,499L252,617L342,479Z" fill="#fea587" stroke="#fea587"/><path d="M342,479L252,617L349,685Z" fill="#fd997e" stroke="#fd997e"/><path d="M342,479L349,685L495,493Z" fill="#fe9c7c" stroke="#fe9c7c"/><path d="M495,493L349,685L523,692Z" fill="#fc8d70" stroke="#fc8d70"/><path d="M495,493L523,692L655,647Z" fill="#fc8869" stroke="#fc8869"/><path d="M495,493L655,647L701,468Z" fill="#fe8f6e" stroke="#fe8f6e"/><path d="M701,468L655,647L784,656Z" fill="#fd8060" stroke="#fd8060"/><path d="M701,468L784,656L816,474Z" fill="#fd8563" stroke="#fd8563"/><path d="M816,474L784,656L942,495Z" fill="#fd7e5b" stroke="#fd7e5b"/><path d="M942,495L784,656L1029,686Z" fill="#fc6e4f" stroke="#fc6e4f"/><path d="M942,495L1029,686L1167,552Z" fill="#f8694b" stroke="#f8694b"/><path d="M1167,552L1029,686L1094,712Z" fill="#f45942" stroke="#f45942"/><path d="M1167,552L1094,712L1288,683Z" fill="#f0513e" stroke="#f0513e"/><path d="M1167,552L1288,683L1287,559Z" fill="#ee5440" stroke="#ee5440"/><path d="M1287,559L1288,683L1418,666Z" fill="#e94738" stroke="#e94738"/><path d="M1287,559L1418,666L1384,482Z" fill="#e8503d" stroke="#e8503d"/><path d="M1384,482L1418,666L1568,476Z" fill="#e44c3c" stroke="#e44c3c"/><path d="M1568,476L1418,666L1614,645Z" fill="#df3d32" stroke="#df3d32"/><path d="M1568,476L1614,645L1775,569Z" fill="#da3e30" stroke="#da3e30"/><path d="M1775,569L1614,645L1715,715Z" fill="#d63126" stroke="#d63126"/><path d="M1775,569L1715,715L1893,690Z" fill="#d12e22" stroke="#d12e22"/><path d="M1775,569L1893,690L1966,538Z" fill="#ce3828" stroke="#ce3828"/><path d="M1775,569L1966,538L1843,470Z" fill="#d04431" stroke="#d04431"/><path d="M1966,538L1893,690L2010,663Z" fill="#c93325" stroke="#c93325"/><path d="M-75,652L-121,862L52,800Z" fill="#fa9188" stroke="#fa9188"/><path d="M-75,652L52,800L102,713Z" fill="#fb9587" stroke="#fb9587"/><path d="M102,713L52,800L239,874Z" fill="#f98378" stroke="#f98378"/><path d="M102,713L239,874L322,801Z" fill="#f97e71" stroke="#f97e71"/><path d="M102,713L322,801L252,617Z" fill="#fb8b79" stroke="#fb8b79"/><path d="M252,617L322,801L349,685Z" fill="#fb8874" stroke="#fb8874"/><path d="M349,685L322,801L503,776Z" fill="#f97b68" stroke="#f97b68"/><path d="M349,685L503,776L523,692Z" fill="#fa7d67" stroke="#fa7d67"/><path d="M523,692L503,776L640,809Z" fill="#f96f5c" stroke="#f96f5c"/><path d="M523,692L640,809L655,647Z" fill="#fa735c" stroke="#fa735c"/><path d="M655,647L640,809L798,795Z" fill="#f96752" stroke="#f96752"/><path d="M655,647L798,795L784,656Z" fill="#fa6c53" stroke="#fa6c53"/><path d="M784,656L798,795L953,772Z" fill="#f95e48" stroke="#f95e48"/><path d="M784,656L953,772L1029,686Z" fill="#fa5e46" stroke="#fa5e46"/><path d="M1029,686L953,772L1076,806Z" fill="#f64f3b" stroke="#f64f3b"/><path d="M1029,686L1076,806L1094,712Z" fill="#f44d3b" stroke="#f44d3b"/><path d="M1094,712L1076,806L1282,774Z" fill="#ef4234" stroke="#ef4234"/><path d="M1094,712L1282,774L1288,683Z" fill="#ec4235" stroke="#ec4235"/><path d="M1288,683L1282,774L1418,666Z" fill="#e73b31" stroke="#e73b31"/><path d="M1418,666L1282,774L1418,810Z" fill="#e4312b" stroke="#e4312b"/><path d="M1418,666L1418,810L1570,832Z" fill="#df2625" stroke="#df2625"/><path d="M1418,666L1570,832L1614,645Z" fill="#dd2927" stroke="#dd2927"/><path d="M1614,645L1570,832L1715,715Z" fill="#d72321" stroke="#d72321"/><path d="M1715,715L1570,832L1757,793Z" fill="#d41a1a" stroke="#d41a1a"/><path d="M1715,715L1757,793L1893,690Z" fill="#d0221b" stroke="#d0221b"/><path d="M1893,690L1757,793L1907,806Z" fill="#cb1d18" stroke="#cb1d18"/><path d="M1893,690L1907,806L2010,663Z" fill="#c8241d" stroke="#c8241d"/><path d="M2010,663L1907,806L1966,849Z" fill="#c61c18" stroke="#c61c18"/><path d="M2010,663L1966,849L1995,995Z" fill="#c31112" stroke="#c31112"/><path d="M2010,663L1995,995L2051,1284Z" fill="#be0004" stroke="#be0004"/><path d="M-121,862L-107,1002L16,955Z" fill="#f6777a" stroke="#f6777a"/><path d="M-121,862L16,955L52,800Z" fill="#f77f7c" stroke="#f77f7c"/><path d="M52,800L16,955L239,874Z" fill="#f77773" stroke="#f77773"/><path d="M239,874L16,955L237,1006Z" fill="#f56967" stroke="#f56967"/><path d="M239,874L237,1006L420,971Z" fill="#f5625d" stroke="#f5625d"/><path d="M239,874L420,971L322,801Z" fill="#f76961" stroke="#f76961"/><path d="M322,801L420,971L503,776Z" fill="#f76a5e" stroke="#f76a5e"/><path d="M503,776L420,971L542,933Z" fill="#f65e54" stroke="#f65e54"/><path d="M503,776L542,933L640,809Z" fill="#f76254" stroke="#f76254"/><path d="M640,809L542,933L629,1028Z" fill="#f55149" stroke="#f55149"/><path d="M640,809L629,1028L829,951Z" fill="#f54a41" stroke="#f54a41"/><path d="M640,809L829,951L798,795Z" fill="#f65244" stroke="#f65244"/><path d="M798,795L829,951L953,772Z" fill="#f74d3e" stroke="#f74d3e"/><path d="M953,772L829,951L956,1006Z" fill="#f53d33" stroke="#f53d33"/><path d="M953,772L956,1006L1076,806Z" fill="#f43f33" stroke="#f43f33"/><path d="M1076,806L956,1006L1114,985Z" fill="#f02f29" stroke="#f02f29"/><path d="M1076,806L1114,985L1282,774Z" fill="#ec322b" stroke="#ec322b"/><path d="M1282,774L1114,985L1283,1029Z" fill="#e72021" stroke="#e72021"/><path d="M1282,774L1283,1029L1384,942Z" fill="#e31b1e" stroke="#e31b1e"/><path d="M1282,774L1384,942L1418,810Z" fill="#e32323" stroke="#e32323"/><path d="M1418,810L1384,942L1570,832Z" fill="#dd181d" stroke="#dd181d"/><path d="M1570,832L1384,942L1578,997Z" fill="#d90814" stroke="#d90814"/><path d="M1570,832L1578,997L1701,1029Z" fill="#d3000c" stroke="#d3000c"/><path d="M1570,832L1701,1029L1757,793Z" fill="#d20910" stroke="#d20910"/><path d="M1757,793L1701,1029L1906,977Z" fill="#cb0108" stroke="#cb0108"/><path d="M1757,793L1906,977L1907,806Z" fill="#c90e0f" stroke="#c90e0f"/><path d="M1907,806L1906,977L1966,849Z" fill="#c50b0e" stroke="#c50b0e"/><path d="M1966,849L1906,977L1995,995Z" fill="#c20008" stroke="#c20008"/><path d="M-107,1002L-35,1334L-49,1168Z" fill="#f07672" stroke="#f07672"/><path d="M-107,1002L-49,1168L48,1070Z" fill="#f2756f" stroke="#f2756f"/><path d="M-107,1002L48,1070L16,955Z" fill="#f4746e" stroke="#f4746e"/><path d="M16,955L48,1070L237,1006Z" fill="#f46d66" stroke="#f46d66"/><path d="M237,1006L48,1070L280,1142Z" fill="#f2685f" stroke="#f2685f"/><path d="M237,1006L280,1142L323,1087Z" fill="#f26358" stroke="#f26358"/><path d="M237,1006L323,1087L420,971Z" fill="#f36054" stroke="#f36054"/><path d="M420,971L323,1087L477,1128Z" fill="#f25b4e" stroke="#f25b4e"/><path d="M420,971L477,1128L542,933Z" fill="#f35749" stroke="#f35749"/><path d="M542,933L477,1128L629,1028Z" fill="#f35244" stroke="#f35244"/><path d="M629,1028L477,1128L622,1140Z" fill="#f15042" stroke="#f15042"/><path d="M629,1028L622,1140L801,1162Z" fill="#f1493a" stroke="#f1493a"/><path d="M629,1028L801,1162L829,951Z" fill="#f24434" stroke="#f24434"/><path d="M829,951L801,1162L956,1006Z" fill="#f23c2c" stroke="#f23c2c"/><path d="M956,1006L801,1162L971,1176Z" fill="#f03929" stroke="#f03929"/><path d="M956,1006L971,1176L1114,985Z" fill="#ef3023" stroke="#ef3023"/><path d="M1114,985L971,1176L1173,1104Z" fill="#ea2a1f" stroke="#ea2a1f"/><path d="M1114,985L1173,1104L1283,1029Z" fill="#e6211a" stroke="#e6211a"/><path d="M1283,1029L1173,1104L1289,1090Z" fill="#e31c18" stroke="#e31c18"/><path d="M1283,1029L1289,1090L1410,1086Z" fill="#df1614" stroke="#df1614"/><path d="M1283,1029L1410,1086L1384,942Z" fill="#de1312" stroke="#de1312"/><path d="M1384,942L1410,1086L1578,997Z" fill="#da0b0f" stroke="#da0b0f"/><path d="M1578,997L1410,1086L1620,1183Z" fill="#d4040a" stroke="#d4040a"/><path d="M1578,997L1620,1183L1701,1029Z" fill="#cf0006" stroke="#cf0006"/><path d="M1701,1029L1620,1183L1732,1133Z" fill="#cc0003" stroke="#cc0003"/><path d="M1701,1029L1732,1133L1883,1127Z" fill="#c80000" stroke="#c80000"/><path d="M1701,1029L1883,1127L1906,977Z" fill="#c60000" stroke="#c60000"/><path d="M1906,977L1883,1127L1995,995Z" fill="#c20000" stroke="#c20000"/><path d="M1995,995L1883,1127L2017,1179Z" fill="#be0000" stroke="#be0000"/><path d="M1995,995L2017,1179L2051,1284Z" fill="#ba0000" stroke="#ba0000"/><path d="M-49,1168L-35,1334L27,1251Z" fill="#ee746e" stroke="#ee746e"/><path d="M-49,1168L27,1251L48,1070Z" fill="#f1726c" stroke="#f1726c"/><path d="M48,1070L27,1251L197,1278Z" fill="#f06e66" stroke="#f06e66"/><path d="M48,1070L197,1278L280,1142Z" fill="#f06960" stroke="#f06960"/><path d="M280,1142L197,1278L415,1299Z" fill="#ee6256" stroke="#ee6256"/><path d="M280,1142L415,1299L477,1128Z" fill="#ef5c4f" stroke="#ef5c4f"/><path d="M280,1142L477,1128L323,1087Z" fill="#f15e52" stroke="#f15e52"/><path d="M477,1128L415,1299L548,1296Z" fill="#ee5749" stroke="#ee5749"/><path d="M477,1128L548,1296L622,1140Z" fill="#ef5244" stroke="#ef5244"/><path d="M622,1140L548,1296L671,1261Z" fill="#ee4e3f" stroke="#ee4e3f"/><path d="M622,1140L671,1261L801,1162Z" fill="#ef4839" stroke="#ef4839"/><path d="M801,1162L671,1261L869,1314Z" fill="#ed4232" stroke="#ed4232"/><path d="M801,1162L869,1314L971,1176Z" fill="#ee3b2b" stroke="#ee3b2b"/><path d="M971,1176L869,1314L1008,1321Z" fill="#ed3626" stroke="#ed3626"/><path d="M971,1176L1008,1321L1084,1233Z" fill="#ea3022" stroke="#ea3022"/><path d="M971,1176L1084,1233L1173,1104Z" fill="#e92b20" stroke="#e92b20"/><path d="M1173,1104L1084,1233L1257,1298Z" fill="#e3231b" stroke="#e3231b"/><path d="M1173,1104L1257,1298L1289,1090Z" fill="#e11d18" stroke="#e11d18"/><path d="M1289,1090L1257,1298L1435,1245Z" fill="#db1614" stroke="#db1614"/><path d="M1289,1090L1435,1245L1410,1086Z" fill="#db1112" stroke="#db1112"/><path d="M1410,1086L1435,1245L1620,1183Z" fill="#d4080c" stroke="#d4080c"/><path d="M1620,1183L1435,1245L1598,1280Z" fill="#d00209" stroke="#d00209"/><path d="M1620,1183L1598,1280L1679,1319Z" fill="#cb0006" stroke="#cb0006"/><path d="M1620,1183L1679,1319L1732,1133Z" fill="#ca0003" stroke="#ca0003"/><path d="M1732,1133L1679,1319L1840,1260Z" fill="#c60000" stroke="#c60000"/><path d="M1732,1133L1840,1260L1883,1127Z" fill="#c40000" stroke="#c40000"/><path d="M1883,1127L1840,1260L2017,1179Z" fill="#be0000" stroke="#be0000"/><path d="M2017,1179L1840,1260L2051,1284Z" fill="#bb0000" stroke="#bb0000"/><path d="M-35,1334L1679,1319L1008,1321Z" fill="#eb3b2b" stroke="#eb3b2b"/><path d="M-35,1334L1008,1321L869,1314Z" fill="#ec4e3f" stroke="#ec4e3f"/><path d="M-35,1334L869,1314L415,1299Z" fill="#ec5b4d" stroke="#ec5b4d"/><path d="M-35,1334L415,1299L197,1278Z" fill="#ed685e" stroke="#ed685e"/><path d="M-35,1334L197,1278L27,1251Z" fill="#ee6f68" stroke="#ee6f68"/><path d="M415,1299L869,1314L548,1296Z" fill="#ec4e3f" stroke="#ec4e3f"/><path d="M548,1296L869,1314L671,1261Z" fill="#ed4839" stroke="#ed4839"/><path d="M1008,1321L1679,1319L1257,1298Z" fill="#da1714" stroke="#da1714"/><path d="M1008,1321L1257,1298L1084,1233Z" fill="#e4281e" stroke="#e4281e"/><path d="M1257,1298L1679,1319L1598,1280Z" fill="#d0060b" stroke="#d0060b"/><path d="M1257,1298L1598,1280L1435,1245Z" fill="#d50d0f" stroke="#d50d0f"/><path d="M1679,1319L2051,1284L1840,1260Z" fill="#bf0000" stroke="#bf0000"/></g></svg>