<svg width="1916" height="1111" xmlns="http://www.w3.org/2000/svg"><g><path d="M-125,-160L-181,568L-163,405Z" fill="#fff8ac" stroke="#fff8ac"/><path d="M-125,-160L-163,405L-124,187Z" fill="#fffbc0" stroke="#fffbc0"/><path d="M-125,-160L-124,187L176,91Z" fill="#fffbc9" stroke="#fffbc9"/><path d="M-125,-160L176,91L142,-161Z" fill="#fff9d6" stroke="#fff9d6"/><path d="M-125,-160L142,-161L933,-210Z" fill="#ffefc3" stroke="#ffefc3"/><path d="M142,-161L176,91L441,-107Z" fill="#fff1c3" stroke="#fff1c3"/><path d="M142,-161L441,-107L685,-179Z" fill="#ffeaba" stroke="#ffeaba"/><path d="M142,-161L685,-179L933,-210Z" fill="#ffe4ac" stroke="#ffe4ac"/><path d="M441,-107L176,91L399,166Z" fill="#ffeca8" stroke="#ffeca8"/><path d="M441,-107L399,166L633,156Z" fill="#ffe698" stroke="#ffe698"/><path d="M441,-107L633,156L685,-179Z" fill="#ffe4a4" stroke="#ffe4a4"/><path d="M685,-179L633,156L823,144Z" fill="#fddb8d" stroke="#fddb8d"/><path d="M685,-179L823,144L933,-210Z" fill="#fad49d" stroke="#fad49d"/><path d="M933,-210L823,144L1082,-178Z" fill="#f6c997" stroke="#f6c997"/><path d="M933,-210L1082,-178L1600,-168Z" fill="#eeb58a" stroke="#eeb58a"/><path d="M933,-210L1600,-168L1909,-166Z" fill="#e69f80" stroke="#e69f80"/><path d="M1082,-178L823,144L1184,28Z" fill="#f3c384" stroke="#f3c384"/><path d="M1082,-178L1184,28L1284,-147Z" fill="#efb78c" stroke="#efb78c"/><path d="M1082,-178L1284,-147L1600,-168Z" fill="#ebac84" stroke="#ebac84"/><path d="M1284,-147L1184,28L1292,62Z" fill="#edb17c" stroke="#edb17c"/><path d="M1284,-147L1292,62L1600,-168Z" fill="#e9a680" stroke="#e9a680"/><path d="M1600,-168L1292,62L1560,183Z" fill="#e69e6c" stroke="#e69e6c"/><path d="M1600,-168L1560,183L1921,30Z" fill="#e08e6e" stroke="#e08e6e"/><path d="M1600,-168L1921,30L1909,-166Z" fill="#dd8580" stroke="#dd8580"/><path d="M1909,-166L1921,30L2210,-60Z" fill="#d7807c" stroke="#d7807c"/><path d="M2210,-60L1921,30L2195,66Z" fill="#d47f6e" stroke="#d47f6e"/><path d="M2210,-60L2195,66L2197,921Z" fill="#d2773a" stroke="#d2773a"/><path d="M2210,-60L2197,921L2218,1087Z" fill="#d14819" stroke="#d14819"/><path d="M-124,187L-163,405L181,330Z" fill="#fff49b" stroke="#fff49b"/><path d="M-124,187L181,330L176,91Z" fill="#fff3a4" stroke="#fff3a4"/><path d="M176,91L181,330L399,166Z" fill="#ffec96" stroke="#ffec96"/><path d="M399,166L181,330L433,408Z" fill="#ffe57c" stroke="#ffe57c"/><path d="M399,166L433,408L633,156Z" fill="#ffe17a" stroke="#ffe17a"/><path d="M633,156L433,408L589,433Z" fill="#ffdc65" stroke="#ffdc65"/><path d="M633,156L589,433L922,314Z" fill="#fdd35f" stroke="#fdd35f"/><path d="M633,156L922,314L823,144Z" fill="#fad06c" stroke="#fad06c"/><path d="M823,144L922,314L1184,28Z" fill="#f5c36a" stroke="#f5c36a"/><path d="M1184,28L922,314L1161,408Z" fill="#f2b755" stroke="#f2b755"/><path d="M1184,28L1161,408L1292,62Z" fill="#eeb05e" stroke="#eeb05e"/><path d="M1292,62L1161,408L1453,306Z" fill="#eca648" stroke="#eca648"/><path d="M1292,62L1453,306L1560,183Z" fill="#e89e50" stroke="#e89e50"/><path d="M1560,183L1453,306L1544,301Z" fill="#e59542" stroke="#e59542"/><path d="M1560,183L1544,301L1847,435Z" fill="#e1893a" stroke="#e1893a"/><path d="M1560,183L1847,435L1921,30Z" fill="#de824a" stroke="#de824a"/><path d="M1921,30L1847,435L2082,294Z" fill="#d97944" stroke="#d97944"/><path d="M1921,30L2082,294L2195,66Z" fill="#d57c59" stroke="#d57c59"/><path d="M2195,66L2082,294L2134,565Z" fill="#d3773a" stroke="#d3773a"/><path d="M2195,66L2134,565L2197,921Z" fill="#d25d24" stroke="#d25d24"/><path d="M-163,405L-181,568L53,598Z" fill="#ffdc8a" stroke="#ffdc8a"/><path d="M-163,405L53,598L181,330Z" fill="#ffe485" stroke="#ffe485"/><path d="M181,330L53,598L433,408Z" fill="#ffdb74" stroke="#ffdb74"/><path d="M433,408L53,598L472,680Z" fill="#ffc563" stroke="#ffc563"/><path d="M433,408L472,680L589,433Z" fill="#ffc658" stroke="#ffc658"/><path d="M589,433L472,680L587,696Z" fill="#ffb54c" stroke="#ffb54c"/><path d="M589,433L587,696L954,623Z" fill="#fdaf42" stroke="#fdaf42"/><path d="M589,433L954,623L922,314Z" fill="#f9bb46" stroke="#f9bb46"/><path d="M922,314L954,623L1161,408Z" fill="#f4ad3e" stroke="#f4ad3e"/><path d="M1161,408L954,623L1112,663Z" fill="#f29531" stroke="#f29531"/><path d="M1161,408L1112,663L1297,543Z" fill="#ef902d" stroke="#ef902d"/><path d="M1161,408L1297,543L1453,306Z" fill="#eb9b31" stroke="#eb9b31"/><path d="M1453,306L1297,543L1545,541Z" fill="#e88a28" stroke="#e88a28"/><path d="M1453,306L1545,541L1544,301Z" fill="#e5902e" stroke="#e5902e"/><path d="M1544,301L1545,541L1847,435Z" fill="#e27f2b" stroke="#e27f2b"/><path d="M1847,435L1545,541L1823,657Z" fill="#df6421" stroke="#df6421"/><path d="M1847,435L1823,657L2134,565Z" fill="#d95821" stroke="#d95821"/><path d="M1847,435L2134,565L2082,294Z" fill="#d76b2a" stroke="#d76b2a"/><path d="M-181,568L-171,1322L-126,861Z" fill="#ff9b6f" stroke="#ff9b6f"/><path d="M-181,568L-126,861L53,598Z" fill="#ffc27c" stroke="#ffc27c"/><path d="M53,598L-126,861L165,814Z" fill="#ffb06c" stroke="#ffb06c"/><path d="M53,598L165,814L472,680Z" fill="#ffb260" stroke="#ffb260"/><path d="M472,680L165,814L405,805Z" fill="#ffa250" stroke="#ffa250"/><path d="M472,680L405,805L616,802Z" fill="#ff9d44" stroke="#ff9d44"/><path d="M472,680L616,802L587,696Z" fill="#ffa041" stroke="#ffa041"/><path d="M587,696L616,802L880,847Z" fill="#fd9033" stroke="#fd9033"/><path d="M587,696L880,847L954,623Z" fill="#fa9032" stroke="#fa9032"/><path d="M954,623L880,847L1104,781Z" fill="#f57e27" stroke="#f57e27"/><path d="M954,623L1104,781L1112,663Z" fill="#f38228" stroke="#f38228"/><path d="M1112,663L1104,781L1297,543Z" fill="#ef7e24" stroke="#ef7e24"/><path d="M1297,543L1104,781L1423,872Z" fill="#ec6a19" stroke="#ec6a19"/><path d="M1297,543L1423,872L1545,541Z" fill="#e86b19" stroke="#e86b19"/><path d="M1545,541L1423,872L1597,848Z" fill="#e55311" stroke="#e55311"/><path d="M1545,541L1597,848L1823,657Z" fill="#e15416" stroke="#e15416"/><path d="M1823,657L1597,848L1915,850Z" fill="#de3a0e" stroke="#de3a0e"/><path d="M1823,657L1915,850L2134,565Z" fill="#d94116" stroke="#d94116"/><path d="M2134,565L1915,850L2197,921Z" fill="#d5330f" stroke="#d5330f"/><path d="M-126,861L-171,1322L-29,1170Z" fill="#ff8068" stroke="#ff8068"/><path d="M-126,861L-29,1170L94,1099Z" fill="#ff8460" stroke="#ff8460"/><path d="M-126,861L94,1099L165,814Z" fill="#ff945d" stroke="#ff945d"/><path d="M165,814L94,1099L433,1074Z" fill="#ff824b" stroke="#ff824b"/><path d="M165,814L433,1074L405,805Z" fill="#ff8d47" stroke="#ff8d47"/><path d="M405,805L433,1074L550,1068Z" fill="#ff7a37" stroke="#ff7a37"/><path d="M405,805L550,1068L616,802Z" fill="#ff8737" stroke="#ff8737"/><path d="M616,802L550,1068L880,847Z" fill="#fd7c2a" stroke="#fd7c2a"/><path d="M880,847L550,1068L864,1183Z" fill="#fb6121" stroke="#fb6121"/><path d="M880,847L864,1183L1175,1217Z" fill="#f54817" stroke="#f54817"/><path d="M880,847L1175,1217L1104,781Z" fill="#f35814" stroke="#f35814"/><path d="M1104,781L1175,1217L1423,872Z" fill="#ee480a" stroke="#ee480a"/><path d="M1423,872L1175,1217L1467,1082Z" fill="#ea2f03" stroke="#ea2f03"/><path d="M1423,872L1467,1082L1597,848Z" fill="#e63702" stroke="#e63702"/><path d="M1597,848L1467,1082L1659,1092Z" fill="#e42500" stroke="#e42500"/><path d="M1597,848L1659,1092L1915,850Z" fill="#df2603" stroke="#df2603"/><path d="M1915,850L1659,1092L1844,1199Z" fill="#dd0c00" stroke="#dd0c00"/><path d="M1915,850L1844,1199L2218,1087Z" fill="#d80700" stroke="#d80700"/><path d="M1915,850L2218,1087L2197,921Z" fill="#d41601" stroke="#d41601"/><path d="M-29,1170L-171,1322L162,1432Z" fill="#ff7c5f" stroke="#ff7c5f"/><path d="M-29,1170L162,1432L94,1099Z" fill="#ff7958" stroke="#ff7958"/><path d="M94,1099L162,1432L367,1325Z" fill="#ff734d" stroke="#ff734d"/><path d="M94,1099L367,1325L433,1074Z" fill="#ff7045" stroke="#ff7045"/><path d="M433,1074L367,1325L550,1068Z" fill="#ff6a38" stroke="#ff6a38"/><path d="M550,1068L367,1325L677,1472Z" fill="#ff6731" stroke="#ff6731"/><path d="M550,1068L677,1472L864,1183Z" fill="#fd5e25" stroke="#fd5e25"/><path d="M864,1183L677,1472L937,1353Z" fill="#f9531e" stroke="#f9531e"/><path d="M864,1183L937,1353L1175,1217Z" fill="#f54616" stroke="#f54616"/><path d="M1175,1217L937,1353L1102,1380Z" fill="#f24012" stroke="#f24012"/><path d="M1175,1217L1102,1380L1380,1445Z" fill="#ee340a" stroke="#ee340a"/><path d="M1175,1217L1380,1445L1467,1082Z" fill="#ea2b04" stroke="#ea2b04"/><path d="M1467,1082L1380,1445L1633,1350Z" fill="#e61f00" stroke="#e61f00"/><path d="M1467,1082L1633,1350L1659,1092Z" fill="#e31700" stroke="#e31700"/><path d="M1659,1092L1633,1350L1844,1199Z" fill="#e00d00" stroke="#e00d00"/><path d="M1844,1199L1633,1350L1877,1303Z" fill="#de0800" stroke="#de0800"/><path d="M1844,1199L1877,1303L2111,1344Z" fill="#d90000" stroke="#d90000"/><path d="M1844,1199L2111,1344L2218,1087Z" fill="#d60000" stroke="#d60000"/><path d="M162,1432L677,1472L367,1325Z" fill="#ff6c3c" stroke="#ff6c3c"/><path d="M677,1472L1380,1445L1102,1380Z" fill="#f34113" stroke="#f34113"/><path d="M677,1472L1102,1380L937,1353Z" fill="#f74d1a" stroke="#f74d1a"/><path d="M1380,1445L2111,1344L1633,1350Z" fill="#e00e00" stroke="#e00e00"/><path d="M1633,1350L2111,1344L1877,1303Z" fill="#db0100" stroke="#db0100"/></g></svg>